<mxfile host="app.diagrams.net" modified="2024-01-22T03:56:55.988Z" agent="Mozilla/5.0 (Macintosh; Intel Mac OS X 10.15; rv:121.0) Gecko/20100101 Firefox/121.0" version="22.1.21" etag="HS5j1vdSRUZhIq0I9lAz" type="github">
  <diagram name="Page-1" id="U_xuJ-hQydTFbC9t58jh">
    <mxGraphModel>
      <root>
        <mxCell id="0" />
        <mxCell id="1" parent="0" />
      </root>
    </mxGraphModel>
  </diagram>
</mxfile>
